<svg xmlns="http://www.w3.org/2000/svg" xmlns:xlink="http://www.w3.org/1999/xlink" version="1.1" id="Capa_1" x="0px" y="0px" width="300px" height="300px" viewBox="150.5 0.5 300 300" enable-background="new 150.5 0.5 300 300" xml:space="preserve" fill="#D28FDF">
<path d="M300.498,0.5c-82.834,0-149.996,67.159-149.996,149.999c0,82.837,67.162,150.001,150,150.001  c82.842,0,149.998-67.164,149.998-150.001C450.5,67.659,383.346,0.5,300.498,0.5z M196.339,146.749l5.955-14.379l52.837,21.88  l-5.955,14.376L196.339,146.749z M252.761,245.433c0-23.213,21.185-42.097,47.225-42.097s47.224,18.884,47.224,42.097H252.761z   M357.836,168.625l-5.953-14.376l52.838-21.88l5.952,14.379L357.836,168.625z"/>
</svg>
