<svg xmlns="http://www.w3.org/2000/svg" xmlns:xlink="http://www.w3.org/1999/xlink" version="1.1" id="Layer_1" x="0px" y="0px" width="300px" height="300px" viewBox="150.5 0.5 300 300" enable-background="new 150.5 0.5 300 300" xml:space="preserve" fill="#8F9CDF">
<path d="M199.472,98.502h-39.177c-5.386,0-9.794,4.386-9.794,9.794v176.298c0,5.405,4.389,9.793,9.794,9.793h39.177  c5.405,0,9.794-4.389,9.794-9.793V108.296C209.266,102.888,204.857,98.502,199.472,98.502z"/>
<path d="M426.047,98.502c-1.577-0.268-75.434,0-75.434,0l10.316-28.144c7.118-19.438,2.51-49.118-17.24-59.669  c-6.432-3.436-15.416-5.162-22.66-3.338c-4.154,1.045-7.805,3.796-9.98,7.481c-2.503,4.238-2.244,9.185-3.136,13.884  c-2.261,11.919-7.892,23.252-16.614,31.758c-15.207,14.831-62.444,57.616-62.444,57.616v156.709h163.239  c22.026,0.014,36.462-24.584,25.598-43.799c12.95-8.293,17.379-25.764,9.795-39.176c12.95-8.295,17.379-25.764,9.794-39.178  C459.625,138.336,452.154,102.917,426.047,98.502z"/>
</svg>
