<svg xmlns="http://www.w3.org/2000/svg" xmlns:xlink="http://www.w3.org/1999/xlink" version="1.1" id="Capa_1" x="0px" y="0px" width="300px" height="300px" viewBox="145 0 300 300" enable-background="new 145 0 300 300" xml:space="preserve" fill="#DFD28F">
<path d="M295,0c-82.843,0-150,67.157-150,150c0,82.84,67.157,150,150,150c82.844,0,150-67.16,150-150C445,67.157,377.844,0,295,0z   M220.579,138.391c-11.788,0-21.377,11.471-21.377,25.573H183.64c0-22.684,16.571-41.135,36.939-41.135  c20.368,0,36.938,18.451,36.938,41.135h-15.562C241.955,149.862,232.366,138.391,220.579,138.391z M295,270.745  c-51.258,0-92.812-36.16-92.812-80.754h185.625C387.812,234.585,346.264,270.745,295,270.745z M390.804,163.964  c0-14.102-9.587-25.573-21.377-25.573c-11.788,0-21.374,11.471-21.374,25.573H332.49c0-22.684,16.571-41.135,36.937-41.135  s36.938,18.451,36.938,41.135H390.804z"/>
</svg>