<svg xmlns="http://www.w3.org/2000/svg" xmlns:xlink="http://www.w3.org/1999/xlink" version="1.1" id="Capa_1" x="0px" y="0px" width="300px" height="300px" viewBox="150.5 0.5 300 300" enable-background="new 150.5 0.5 300 300" xml:space="preserve" fill="#9CDF8F">
<path d="M300.5,0.5c-82.843,0-150,67.157-150,150c0,82.844,67.157,150,150,150c82.84,0,150-67.156,150-150  C450.5,67.657,383.344,0.5,300.5,0.5z M212.301,172.193c-11.98,0-21.693-9.713-21.693-21.693c0-11.98,9.713-21.693,21.693-21.693  c11.983,0,21.693,9.713,21.693,21.693C233.994,162.48,224.284,172.193,212.301,172.193z M388.701,172.193  c-11.979,0-21.693-9.713-21.693-21.693c0-11.98,9.714-21.693,21.693-21.693c11.98,0,21.693,9.713,21.693,21.693  C410.395,162.48,400.682,172.193,388.701,172.193z M253.131-8041V8342 M347.209-8041V8342 M-7891,203.34H8492 M347.209,226.379  c0,25.979-21.061,47.039-47.039,47.039c-25.979,0-47.039-21.061-47.039-47.039s21.06-47.039,47.039-47.039  C326.148,179.34,347.209,200.4,347.209,226.379z"/>
</svg>