<svg xmlns="http://www.w3.org/2000/svg" xmlns:xlink="http://www.w3.org/1999/xlink" version="1.1" id="Capa_1" x="0px" y="0px" width="300px" height="300px" viewBox="150.5 0.5 300 300" enable-background="new 150.5 0.5 300 300" xml:space="preserve" fill="#8FDFD2">
<path d="M300.5,0.5c-82.843,0-150,67.157-150,150c0,82.844,67.157,150,150,150c82.84,0,150-67.156,150-150  C450.5,67.657,383.344,0.5,300.5,0.5z M212.301,172.193c-11.98,0-21.693-9.713-21.693-21.693c0-11.98,9.713-21.693,21.693-21.693  c11.983,0,21.693,9.713,21.693,21.693C233.994,162.48,224.284,172.193,212.301,172.193z M331.646,245.432  c0-14.631-14.207-26.529-31.662-26.529c-17.458,0-31.664,11.904-31.664,26.529h-15.562c0-23.21,21.185-42.092,47.225-42.092  c26.039,0,47.225,18.882,47.225,42.092H331.646z M388.701,172.193c-11.979,0-21.693-9.713-21.693-21.693  c0-11.98,9.714-21.693,21.693-21.693c11.98,0,21.693,9.713,21.693,21.693C410.395,162.48,400.682,172.193,388.701,172.193z"/>
</svg>
